# xmcd
#
# Track frame offsets:
# 150
# 19235
# 35362
# 56405
# 73957
# 90245
# 115535
# 134802
# 148925
# 164177
# 181375
# 194525
# 213977
# 230075
#
# Disc length: 3287 seconds
#
#
# Revision: 1
# Processed by: cddbd v1.5.1PL0 Copyright (c) Steve Scherf et al.
# Submitted via: FreeRIP 2.40 
#
DISCID=d70cd50e
DTITLE=Chitãozinho and Xororó - Na Fazenda - Nascemos para Cantar - Na Fazenda
DYEAR=2005
DGENRE=Sertanejo
TTITLE0=No Rancho Fundo
TTITLE1=Coração Sertanejo
TTITLE2=Caipira
TTITLE3=Cowboy do Asfalto
TTITLE4=Pensando em Minha Amada
TTITLE5=Caminhoneiro (Gentle On My Mind)
TTITLE6=Terra Amante
TTITLE7=Chico Mineiro
TTITLE8=O Menino da Porteira
TTITLE9=O Rio
TTITLE10=Saco de Ouro
TTITLE11=Natureza, Espelho de Deus
TTITLE12=Colheita de Milho
TTITLE13=Lobo Solitarioá
EXTD=by Tosh2005
EXTT0=
EXTT1=
EXTT2=
EXTT3=
EXTT4=
EXTT5=
EXTT6=
EXTT7=
EXTT8=
EXTT9=
EXTT10=
EXTT11=
EXTT12=
EXTT13=
PLAYORDER=
